<svg xmlns="http://www.w3.org/2000/svg" xmlns:xlink="http://www.w3.org/1999/xlink" width="1080" zoomAndPan="magnify" viewBox="0 0 810 809.999993" height="1080" preserveAspectRatio="xMidYMid meet" version="1.0"><path fill="#000000" d="M 67.5 810 C 67.5 810 0 810 0 742.5 C 0 675 67.5 472.5 405 472.5 C 742.5 472.5 810 675 810 742.5 C 810 810 742.5 810 742.5 810 Z M 405 405 C 458.707031 405 510.214844 383.664062 548.1875 345.6875 C 586.164062 307.714844 607.5 256.207031 607.5 202.5 C 607.5 148.792969 586.164062 97.285156 548.1875 59.3125 C 510.214844 21.335938 458.707031 0 405 0 C 351.292969 0 299.785156 21.335938 261.8125 59.3125 C 223.835938 97.285156 202.5 148.792969 202.5 202.5 C 202.5 256.207031 223.835938 307.714844 261.8125 345.6875 C 299.785156 383.664062 351.292969 405 405 405 Z M 405 405 " fill-opacity="1" fill-rule="nonzero"/></svg>