<svg xmlns="http://www.w3.org/2000/svg" xmlns:xlink="http://www.w3.org/1999/xlink" width="1080" zoomAndPan="magnify" viewBox="0 0 810 809.999993" height="1080" preserveAspectRatio="xMidYMid meet" version="1.0"><defs><clipPath id="0ea1446b2a"><path d="M 62.269531 1 L 747.769531 1 L 747.769531 809 L 62.269531 809 Z M 62.269531 1 " clip-rule="nonzero"/></clipPath></defs><g clip-path="url(#0ea1446b2a)"><path fill="#000000" d="M 720.660156 278.8125 L 471.386719 29.558594 C 470.304688 28.46875 469.195312 27.402344 468.058594 26.367188 C 466.925781 25.328125 465.765625 24.320312 464.578125 23.339844 C 463.394531 22.359375 462.183594 21.410156 460.953125 20.492188 C 459.722656 19.570312 458.464844 18.679688 457.191406 17.824219 C 455.914062 16.964844 454.617188 16.136719 453.300781 15.34375 C 451.984375 14.550781 450.648438 13.789062 449.292969 13.058594 C 447.941406 12.332031 446.570312 11.636719 445.179688 10.976562 C 443.792969 10.316406 442.386719 9.691406 440.96875 9.097656 C 439.546875 8.507812 438.113281 7.953125 436.667969 7.429688 C 435.222656 6.910156 433.761719 6.425781 432.292969 5.976562 C 430.820312 5.527344 429.339844 5.117188 427.847656 4.742188 C 426.355469 4.363281 424.855469 4.027344 423.347656 3.726562 C 421.839844 3.421875 420.328125 3.160156 418.804688 2.933594 C 417.285156 2.707031 415.757812 2.515625 414.230469 2.363281 C 412.699219 2.214844 411.164062 2.101562 409.628906 2.023438 C 408.09375 1.949219 406.554688 1.910156 405.019531 1.910156 C 403.480469 1.910156 401.945312 1.949219 400.40625 2.023438 C 398.871094 2.101562 397.339844 2.214844 395.808594 2.363281 C 394.277344 2.515625 392.753906 2.707031 391.230469 2.933594 C 389.710938 3.160156 388.195312 3.421875 386.6875 3.726562 C 385.179688 4.027344 383.679688 4.363281 382.1875 4.742188 C 380.699219 5.117188 379.21875 5.527344 377.746094 5.976562 C 376.273438 6.425781 374.816406 6.910156 373.371094 7.429688 C 371.921875 7.953125 370.488281 8.507812 369.070312 9.097656 C 367.648438 9.691406 366.246094 10.316406 364.855469 10.976562 C 363.46875 11.636719 362.097656 12.332031 360.742188 13.058594 C 359.386719 13.789062 358.054688 14.550781 356.734375 15.34375 C 355.417969 16.136719 354.121094 16.964844 352.847656 17.824219 C 351.570312 18.679688 350.316406 19.570312 349.085938 20.492188 C 347.851562 21.410156 346.644531 22.359375 345.457031 23.339844 C 344.273438 24.320312 343.113281 25.328125 341.976562 26.367188 C 340.84375 27.402344 339.734375 28.46875 338.648438 29.558594 L 89.378906 278.8125 C 87.1875 281.019531 85.113281 283.328125 83.15625 285.742188 C 81.199219 288.152344 79.363281 290.65625 77.65625 293.253906 C 75.949219 295.847656 74.371094 298.523438 72.929688 301.273438 C 71.488281 304.027344 70.1875 306.84375 69.027344 309.726562 C 67.867188 312.609375 66.851562 315.542969 65.980469 318.523438 C 65.113281 321.507812 64.394531 324.527344 63.828125 327.582031 C 63.261719 330.636719 62.847656 333.710938 62.585938 336.808594 C 62.324219 339.90625 62.21875 343.007812 62.269531 346.113281 L 62.269531 715.011719 C 62.269531 716.542969 62.304688 718.070312 62.382812 719.597656 C 62.457031 721.125 62.570312 722.652344 62.71875 724.171875 C 62.867188 725.695312 63.054688 727.214844 63.28125 728.726562 C 63.503906 730.238281 63.765625 731.746094 64.066406 733.246094 C 64.363281 734.746094 64.699219 736.238281 65.070312 737.722656 C 65.441406 739.207031 65.851562 740.679688 66.292969 742.144531 C 66.738281 743.609375 67.21875 745.0625 67.734375 746.5 C 68.25 747.941406 68.796875 749.367188 69.382812 750.78125 C 69.96875 752.195312 70.589844 753.59375 71.242188 754.976562 C 71.898438 756.359375 72.585938 757.722656 73.304688 759.074219 C 74.027344 760.421875 74.78125 761.753906 75.566406 763.066406 C 76.355469 764.378906 77.171875 765.667969 78.023438 766.941406 C 78.871094 768.214844 79.753906 769.464844 80.664062 770.691406 C 81.574219 771.921875 82.515625 773.125 83.488281 774.308594 C 84.457031 775.492188 85.457031 776.648438 86.484375 777.78125 C 87.511719 778.917969 88.566406 780.023438 89.648438 781.105469 C 90.730469 782.1875 91.835938 783.242188 92.96875 784.269531 C 94.105469 785.296875 95.261719 786.296875 96.445312 787.265625 C 97.628906 788.234375 98.832031 789.175781 100.0625 790.089844 C 101.289062 791 102.539062 791.878906 103.8125 792.730469 C 105.085938 793.578125 106.375 794.398438 107.6875 795.183594 C 109 795.972656 110.332031 796.722656 111.679688 797.445312 C 113.03125 798.167969 114.394531 798.855469 115.78125 799.507812 C 117.164062 800.164062 118.558594 800.78125 119.972656 801.367188 C 121.386719 801.953125 122.8125 802.503906 124.253906 803.019531 C 125.695312 803.535156 127.148438 804.011719 128.609375 804.457031 C 130.074219 804.902344 131.550781 805.308594 133.03125 805.679688 C 134.515625 806.054688 136.007812 806.386719 137.507812 806.6875 C 139.011719 806.984375 140.515625 807.246094 142.03125 807.472656 C 143.542969 807.695312 145.0625 807.882812 146.582031 808.03125 C 148.105469 808.183594 149.632812 808.296875 151.160156 808.371094 C 152.6875 808.445312 154.214844 808.484375 155.746094 808.484375 L 249.222656 808.484375 C 251.265625 808.484375 253.300781 808.382812 255.332031 808.183594 C 257.363281 807.984375 259.378906 807.683594 261.382812 807.285156 C 263.382812 806.886719 265.359375 806.390625 267.3125 805.800781 C 269.265625 805.207031 271.1875 804.519531 273.070312 803.738281 C 274.957031 802.957031 276.800781 802.085938 278.601562 801.125 C 280.398438 800.164062 282.148438 799.113281 283.84375 797.980469 C 285.542969 796.847656 287.179688 795.632812 288.757812 794.339844 C 290.335938 793.042969 291.84375 791.675781 293.289062 790.230469 C 294.730469 788.789062 296.101562 787.277344 297.394531 785.699219 C 298.691406 784.121094 299.90625 782.484375 301.039062 780.789062 C 302.171875 779.089844 303.222656 777.34375 304.183594 775.542969 C 305.144531 773.742188 306.015625 771.902344 306.796875 770.015625 C 307.578125 768.128906 308.265625 766.210938 308.859375 764.257812 C 309.449219 762.304688 309.945312 760.328125 310.34375 758.324219 C 310.742188 756.324219 311.042969 754.308594 311.242188 752.277344 C 311.441406 750.246094 311.542969 748.210938 311.542969 746.167969 L 311.542969 559.226562 C 311.542969 558.207031 311.589844 557.1875 311.691406 556.171875 C 311.792969 555.15625 311.941406 554.148438 312.140625 553.148438 C 312.339844 552.148438 312.585938 551.160156 312.882812 550.183594 C 313.179688 549.207031 313.523438 548.246094 313.914062 547.304688 C 314.304688 546.359375 314.738281 545.441406 315.222656 544.539062 C 315.703125 543.640625 316.226562 542.765625 316.792969 541.917969 C 317.359375 541.070312 317.96875 540.25 318.613281 539.460938 C 319.261719 538.671875 319.945312 537.917969 320.667969 537.195312 C 321.390625 536.472656 322.144531 535.789062 322.933594 535.140625 C 323.722656 534.496094 324.539062 533.886719 325.390625 533.320312 C 326.238281 532.753906 327.113281 532.230469 328.011719 531.75 C 328.914062 531.269531 329.832031 530.832031 330.777344 530.441406 C 331.71875 530.050781 332.679688 529.707031 333.65625 529.410156 C 334.632812 529.117188 335.621094 528.867188 336.621094 528.667969 C 337.621094 528.46875 338.628906 528.320312 339.644531 528.21875 C 340.660156 528.121094 341.679688 528.070312 342.699219 528.070312 L 467.335938 528.070312 C 468.355469 528.070312 469.375 528.121094 470.390625 528.21875 C 471.40625 528.320312 472.414062 528.46875 473.414062 528.667969 C 474.417969 528.867188 475.40625 529.117188 476.382812 529.410156 C 477.359375 529.707031 478.316406 530.050781 479.261719 530.441406 C 480.203125 530.832031 481.125 531.269531 482.023438 531.75 C 482.925781 532.230469 483.800781 532.753906 484.648438 533.320312 C 485.496094 533.886719 486.316406 534.496094 487.105469 535.140625 C 487.894531 535.789062 488.648438 536.472656 489.371094 537.195312 C 490.089844 537.917969 490.777344 538.671875 491.421875 539.460938 C 492.070312 540.25 492.675781 541.070312 493.246094 541.917969 C 493.8125 542.765625 494.335938 543.640625 494.816406 544.539062 C 495.296875 545.441406 495.734375 546.359375 496.125 547.304688 C 496.515625 548.246094 496.859375 549.207031 497.152344 550.183594 C 497.449219 551.160156 497.699219 552.148438 497.898438 553.148438 C 498.097656 554.148438 498.246094 555.15625 498.347656 556.171875 C 498.445312 557.1875 498.496094 558.207031 498.496094 559.226562 L 498.496094 746.167969 C 498.496094 780.441406 495.378906 808.484375 529.65625 808.484375 L 654.292969 808.484375 C 655.820312 808.484375 657.351562 808.445312 658.878906 808.371094 C 660.40625 808.296875 661.929688 808.183594 663.453125 808.03125 C 664.976562 807.882812 666.492188 807.695312 668.007812 807.472656 C 669.519531 807.246094 671.027344 806.984375 672.527344 806.6875 C 674.027344 806.386719 675.519531 806.054688 677.003906 805.679688 C 678.488281 805.308594 679.960938 804.902344 681.425781 804.457031 C 682.890625 804.011719 684.34375 803.535156 685.78125 803.019531 C 687.222656 802.503906 688.648438 801.953125 690.0625 801.367188 C 691.476562 800.78125 692.875 800.164062 694.257812 799.507812 C 695.640625 798.855469 697.007812 798.167969 698.355469 797.445312 C 699.707031 796.722656 701.035156 795.972656 702.347656 795.183594 C 703.660156 794.398438 704.953125 793.578125 706.222656 792.730469 C 707.496094 791.878906 708.746094 791 709.976562 790.089844 C 711.203125 789.175781 712.410156 788.234375 713.59375 787.265625 C 714.773438 786.296875 715.933594 785.296875 717.066406 784.269531 C 718.199219 783.242188 719.308594 782.1875 720.390625 781.105469 C 721.472656 780.023438 722.527344 778.917969 723.554688 777.78125 C 724.582031 776.648438 725.578125 775.492188 726.550781 774.308594 C 727.519531 773.125 728.460938 771.921875 729.371094 770.691406 C 730.285156 769.464844 731.164062 768.214844 732.015625 766.941406 C 732.863281 765.667969 733.683594 764.378906 734.46875 763.066406 C 735.257812 761.753906 736.011719 760.421875 736.730469 759.074219 C 737.453125 757.722656 738.140625 756.359375 738.792969 754.976562 C 739.449219 753.59375 740.066406 752.195312 740.652344 750.78125 C 741.238281 749.367188 741.789062 747.941406 742.304688 746.5 C 742.820312 745.0625 743.300781 743.609375 743.742188 742.144531 C 744.1875 740.679688 744.59375 739.207031 744.96875 737.722656 C 745.339844 736.238281 745.675781 734.746094 745.972656 733.246094 C 746.269531 731.746094 746.53125 730.238281 746.757812 728.726562 C 746.980469 727.214844 747.167969 725.695312 747.320312 724.171875 C 747.46875 722.652344 747.582031 721.125 747.65625 719.597656 C 747.730469 718.070312 747.769531 716.542969 747.769531 715.011719 L 747.769531 346.113281 C 747.816406 343.007812 747.710938 339.90625 747.449219 336.808594 C 747.191406 333.710938 746.777344 330.636719 746.207031 327.582031 C 745.640625 324.527344 744.921875 321.507812 744.054688 318.523438 C 743.1875 315.542969 742.171875 312.609375 741.011719 309.726562 C 739.851562 306.84375 738.546875 304.027344 737.105469 301.273438 C 735.664062 298.523438 734.089844 295.847656 732.382812 293.253906 C 730.671875 290.65625 728.839844 288.152344 726.878906 285.742188 C 724.921875 283.328125 722.847656 281.019531 720.660156 278.8125 Z M 720.660156 278.8125 " fill-opacity="1" fill-rule="nonzero"/></g></svg>