<svg xmlns="http://www.w3.org/2000/svg" xmlns:xlink="http://www.w3.org/1999/xlink" width="1080" zoomAndPan="magnify" viewBox="0 0 810 809.999993" height="1080" preserveAspectRatio="xMidYMid meet" version="1.0"><defs><clipPath id="2263b2615a"><path d="M 1 56.023438 L 810 56.023438 L 810 754.273438 L 1 754.273438 Z M 1 56.023438 " clip-rule="nonzero"/></clipPath></defs><g clip-path="url(#2263b2615a)"><path fill="#000000" d="M 809.941406 506.257812 C 809.941406 505.441406 809.761719 504.527344 809.578125 503.710938 C 809.578125 503.4375 809.578125 503.164062 809.578125 502.890625 C 809.667969 499.339844 809.304688 495.789062 808.304688 492.148438 C 804.664062 478.582031 801.023438 464.921875 797.382812 451.355469 C 788.738281 418.851562 780 386.347656 771.355469 353.84375 C 760.796875 314.421875 750.242188 274.996094 739.773438 235.480469 C 730.675781 201.519531 721.664062 167.558594 712.5625 133.597656 C 708.195312 117.117188 704.191406 100.367188 699.277344 83.976562 C 699.183594 83.703125 699.183594 83.429688 699.09375 83.25 C 695 67.769531 679.890625 56.480469 663.964844 56.480469 L 211.195312 56.480469 C 190.265625 56.480469 169.242188 56.023438 148.308594 56.480469 C 148.035156 56.480469 147.671875 56.480469 147.398438 56.480469 C 131.472656 56.480469 116.457031 67.769531 112.269531 83.25 L 101.351562 124.039062 C 92.703125 156.542969 83.96875 189.046875 75.320312 221.550781 C 64.765625 260.976562 54.207031 300.398438 43.742188 339.914062 C 34.640625 373.875 25.628906 407.835938 16.53125 441.796875 C 12.160156 458.367188 7.429688 474.847656 3.242188 491.417969 C 3.152344 491.691406 3.152344 491.875 3.058594 492.148438 C 2.058594 495.878906 1.695312 499.886719 1.878906 503.890625 C 1.695312 506.804688 1.695312 509.71875 1.695312 512.722656 L 1.695312 692.453125 C 1.695312 706.839844 0.0585938 722.5 8.429688 735.0625 C 16.53125 747.082031 29.453125 753.820312 43.921875 754.09375 C 45.378906 754.09375 46.835938 754.09375 48.292969 754.09375 L 723.210938 754.09375 C 737.957031 754.09375 752.699219 754.273438 767.351562 754.09375 C 778.726562 754 790.011719 749.8125 798.019531 741.4375 C 806.300781 732.695312 809.851562 721.679688 809.851562 709.84375 L 809.851562 507.167969 C 809.941406 506.894531 809.941406 506.53125 809.941406 506.257812 Z M 581.511719 465.289062 C 578.78125 465.289062 575.960938 465.289062 573.230469 465.289062 C 549.929688 465.832031 531.910156 484.132812 531.457031 507.441406 C 531.273438 516.910156 531.457031 526.472656 531.457031 535.941406 C 531.457031 536.941406 531.457031 538.035156 531.457031 539.035156 C 531.457031 540.039062 531.367188 541.128906 531.367188 542.222656 C 531.273438 545.957031 531.457031 540.949219 531.636719 541.128906 C 532.277344 541.769531 530.363281 547.414062 530.089844 548.324219 C 529.820312 549.144531 529.636719 549.871094 529.363281 550.601562 C 529.273438 550.964844 529.089844 551.328125 528.910156 551.691406 C 528.816406 551.964844 528.726562 552.238281 528.636719 552.421875 C 527.90625 553.695312 526.996094 555.242188 526.816406 555.425781 C 526.449219 556.0625 524.539062 559.886719 523.8125 559.886719 C 524.265625 559.25 524.722656 558.703125 525.175781 558.066406 C 524.722656 558.703125 524.175781 559.25 523.628906 559.886719 C 522.8125 560.796875 521.992188 561.617188 521.171875 562.4375 C 520.625 562.980469 519.988281 563.527344 519.441406 564.074219 C 519.171875 564.347656 518.804688 564.621094 518.535156 564.894531 C 516.984375 566.167969 517.351562 565.894531 519.441406 564.257812 C 519.441406 564.984375 515.621094 566.898438 514.984375 567.261719 C 514.710938 567.445312 513.164062 568.355469 511.980469 569.082031 C 512.164062 568.992188 512.253906 568.992188 512.4375 568.902344 C 512.253906 568.992188 512.070312 568.992188 511.980469 569.082031 C 511.980469 569.082031 511.980469 569.082031 512.070312 569.082031 C 511.433594 569.355469 510.886719 569.539062 510.25 569.71875 C 509.066406 570.085938 507.976562 570.449219 506.792969 570.8125 C 506.246094 570.996094 504.699219 571.449219 503.335938 571.8125 C 503.335938 571.8125 502.972656 571.8125 501.96875 571.8125 C 500.878906 571.8125 499.875 571.90625 498.785156 571.90625 C 498.328125 571.90625 497.964844 571.90625 497.601562 571.90625 C 493.414062 571.90625 489.136719 571.90625 484.859375 571.90625 L 426.433594 571.90625 C 389.117188 571.90625 351.894531 571.996094 314.675781 571.90625 C 313.855469 571.90625 311.851562 571.996094 310.304688 571.90625 C 310.304688 571.90625 310.304688 571.8125 310.214844 571.8125 L 310.304688 571.8125 C 310.214844 571.8125 309.941406 571.8125 309.304688 571.722656 C 308.121094 571.449219 306.9375 571.269531 305.664062 570.996094 C 303.933594 570.539062 302.207031 569.71875 300.476562 569.445312 C 300.660156 569.539062 300.75 569.628906 300.929688 569.71875 C 304.390625 571.539062 298.019531 569.082031 300.476562 569.539062 C 299.929688 569.265625 299.292969 568.992188 298.746094 568.71875 C 298.472656 568.535156 295.835938 567.171875 294.105469 566.167969 C 294.015625 566.078125 293.832031 565.894531 293.558594 565.621094 C 292.648438 564.804688 291.738281 564.074219 290.921875 563.253906 C 289.648438 561.980469 288.464844 560.707031 287.28125 559.339844 C 287.1875 559.25 287.1875 559.25 287.097656 559.160156 C 287.28125 559.429688 287.460938 559.703125 287.460938 559.703125 C 287.097656 559.523438 285.003906 556.882812 287.007812 559.066406 C 286.644531 558.519531 286.097656 557.703125 286.097656 557.703125 C 284.824219 555.699219 283.730469 553.605469 282.640625 551.417969 C 282.640625 551.417969 282.640625 551.328125 282.546875 551.328125 C 282.367188 550.601562 282.09375 549.78125 282.09375 549.597656 C 281.546875 547.867188 281.089844 546.046875 280.726562 544.226562 C 280.636719 543.863281 280.636719 543.496094 280.546875 543.132812 C 280.546875 543.226562 280.546875 543.40625 280.546875 543.496094 C 280.453125 542.679688 280.363281 542.042969 280.273438 541.859375 C 280.273438 542.042969 280.363281 542.40625 280.453125 543.042969 L 280.453125 543.132812 C 280.453125 542.40625 280.363281 541.585938 280.363281 541.585938 C 280.273438 540.585938 280.273438 539.582031 280.273438 538.488281 C 280.179688 528.839844 280.273438 519.1875 280.273438 509.535156 C 280.273438 490.050781 269.261719 472.480469 249.964844 466.835938 C 244.234375 465.195312 238.589844 465.195312 232.765625 465.195312 L 148.308594 465.195312 C 127.46875 465.195312 106.628906 465.015625 85.695312 465.015625 C 93.886719 434.332031 102.078125 403.738281 110.269531 373.144531 C 120.824219 333.722656 131.292969 294.296875 141.847656 254.875 C 150.949219 220.914062 159.960938 186.863281 169.058594 152.898438 C 171.152344 145.070312 173.335938 137.511719 175.523438 129.320312 L 600.351562 129.320312 C 612.273438 129.320312 624.195312 129.5 636.207031 129.5 C 637.480469 134.144531 638.664062 138.789062 639.9375 143.429688 C 648.585938 175.9375 657.320312 208.441406 665.96875 240.945312 C 676.523438 280.367188 687.082031 319.792969 697.546875 359.308594 C 706.648438 393.269531 715.65625 427.230469 724.757812 461.191406 C 725.121094 462.554688 725.488281 464.46875 725.851562 465.378906 L 581.511719 465.378906 Z M 581.511719 465.289062 " fill-opacity="1" fill-rule="nonzero"/></g></svg>