<svg xmlns="http://www.w3.org/2000/svg" xmlns:xlink="http://www.w3.org/1999/xlink" width="1080" zoomAndPan="magnify" viewBox="0 0 810 809.999993" height="1080" preserveAspectRatio="xMidYMid meet" version="1.0"><defs><clipPath id="37f5726e85"><path d="M 22 499 L 788 499 L 788 768.019531 L 22 768.019531 Z M 22 499 " clip-rule="nonzero"/></clipPath><clipPath id="7bf5d6a2bd"><path d="M 177 42.019531 L 633 42.019531 L 633 172 L 177 172 Z M 177 42.019531 " clip-rule="nonzero"/></clipPath></defs><g clip-path="url(#37f5726e85)"><path fill="#000000" d="M 164.457031 559.765625 C 108.480469 559.765625 58.035156 536.433594 22.03125 499.078125 L 22.03125 690.351562 C 22.03125 733.238281 56.796875 768.007812 99.683594 768.007812 L 710.316406 768.007812 C 753.203125 768.007812 787.96875 733.238281 787.96875 690.351562 L 787.96875 499.078125 C 751.96875 536.433594 701.519531 559.765625 645.542969 559.765625 L 487.082031 559.765625 L 487.082031 617.746094 C 487.082031 635.582031 472.625 650.042969 454.789062 650.042969 L 355.210938 650.042969 C 337.378906 650.042969 322.917969 635.582031 322.917969 617.746094 L 322.917969 559.765625 Z M 164.457031 559.765625 " fill-opacity="1" fill-rule="nonzero"/></g><path fill="#000000" d="M 368.703125 618.9375 L 441.296875 618.9375 C 449.402344 618.9375 455.976562 612.363281 455.976562 604.257812 L 455.976562 487.195312 C 455.976562 479.089844 449.402344 472.515625 441.296875 472.515625 L 368.703125 472.515625 C 360.597656 472.515625 354.023438 479.089844 354.023438 487.195312 L 354.023438 604.257812 C 354.023438 612.367188 360.597656 618.9375 368.703125 618.9375 Z M 368.703125 618.9375 " fill-opacity="1" fill-rule="nonzero"/><g clip-path="url(#7bf5d6a2bd)"><path fill="#000000" d="M 506.035156 42.019531 L 303.964844 42.019531 C 264.328125 42.019531 232.199219 74.152344 232.199219 113.792969 L 232.199219 135.773438 C 232.199219 140.308594 228.523438 143.980469 223.988281 143.980469 L 205.359375 143.980469 C 190.078125 143.980469 177.691406 156.359375 177.664062 171.632812 L 294.402344 171.632812 L 294.402344 113.792969 C 294.402344 108.515625 298.691406 104.230469 303.960938 104.230469 L 506.035156 104.230469 C 511.304688 104.230469 515.59375 108.515625 515.59375 113.792969 L 515.59375 171.632812 L 632.335938 171.632812 C 632.304688 156.359375 619.921875 143.980469 604.636719 143.980469 L 586.007812 143.980469 C 581.476562 143.980469 577.800781 140.308594 577.800781 135.773438 L 577.800781 113.792969 C 577.800781 74.152344 545.671875 42.019531 506.035156 42.019531 Z M 506.035156 42.019531 " fill-opacity="1" fill-rule="nonzero"/></g><path fill="#000000" d="M 741.964844 198.589844 L 68.035156 198.589844 C 30.816406 198.589844 0.644531 228.765625 0.644531 265.988281 L 0.644531 356.542969 C 0.644531 461.527344 85.746094 528.664062 190.726562 528.664062 L 322.917969 528.664062 L 322.917969 473.707031 C 322.917969 455.871094 337.375 441.414062 355.210938 441.414062 L 454.792969 441.414062 C 472.628906 441.414062 487.085938 455.871094 487.085938 473.707031 L 487.085938 528.664062 L 619.277344 528.664062 C 724.253906 528.664062 809.359375 461.527344 809.359375 356.542969 L 809.359375 265.988281 C 809.355469 228.765625 779.183594 198.589844 741.964844 198.589844 Z M 741.964844 198.589844 " fill-opacity="1" fill-rule="nonzero"/></svg>